<?xml version="1.0" standalone="no"?>
<svg xmlns="http://www.w3.org/2000/svg" viewBox="0 0 220.368 29" width="220.368" height="29"><g fill="#000000" color="#000000" transform="translate(0, 0) scale(0.29)"><svg width="100.0" height="100.0" x="0.0" y="0.0" viewBox="0 0 100 100"><g><polygon points="43.4,86.1 59.7,95 59.7,85 43.4,76.4  "></polygon><polygon points="61.4,94.8 89.5,74.2 89.5,64.8 61.4,85  "></polygon><path d="M37,14.8L21,32.7c1.4,0.9,2.7,1.8,4,2.6l16.7-18.6c-1.6-0.7-3.1-1.5-4.5-2.1C37.1,14.6,37,14.7,37,14.8z"></path><path d="M43.1,17.6L26.4,36.1c1.4,0.8,2.7,1.6,4,2.3l16.9-19.2c-1.4-0.6-2.8-1.2-4.1-1.9C43.2,17.5,43.2,17.5,43.1,17.6z"></path><path d="M19.3,23.3c-2.5,0.8-5.7,1.7-8.2,2.4c1.2,0.9,2.4,1.8,3.6,2.7L19.3,23.3z"></path><path d="M22.9,21.7C22.9,21.7,22.9,21.7,22.9,21.7l-6.8,7.6c1.2,0.8,2.3,1.6,3.5,2.4l16-17.9c-2.2-1-3.9-1.9-4.8-2.3   C29.3,13.7,24.8,20.1,22.9,21.7z"></path><path d="M31.9,39.3c0.2,0.1,0.4,0.2,0.6,0.3c1.3,0.7,2.5,1.3,3.7,1.8l17.2-19.5c-1.4-0.6-2.9-1.2-4.4-1.9L31.9,39.3z"></path><path d="M59,46.4c-1.2-1.3-2.6-3.4-3.6-5.4l-4.5,5.2c1.9,0.3,3.6,0.4,5,0.4C57.1,46.6,58.1,46.5,59,46.4z"></path><path d="M56.9,30.1L44.2,44.5c1.7,0.6,3.3,1,4.8,1.3l5.5-6.4c-0.7-1.4-1.3-2.5-1.4-2.9c-0.1-0.3-0.1-0.6,0.1-0.9   C54.4,34.3,55.7,32.2,56.9,30.1z"></path><path d="M29.8,10c0.2-0.3,0.7-0.5,1.1-0.3c0.2,0.1,22.8,11.1,30.6,13.3c0.1,0,0.2,0.1,0.2,0.1c0,0,0,0,0,0c0,0,0,0,0,0   c0.1,0.1,0.1,0.1,0.2,0.2c0,0,0,0,0,0c0,0.1,0.1,0.2,0.1,0.2c0,0,0,0,0,0c0,0.1,0,0.2,0,0.3c0,0,0,0,0,0c0,0,0,0.1,0,0.1   c0,0.1,0,0.1-0.1,0.2c0,0,0,0,0,0c0,0,0,0,0,0c0,0,0,0,0,0c-0.2,0.4-4.3,8.3-7.1,12c0.4,0.8,0.9,1.8,1.4,2.8c0,0,0,0,0,0.1   c1.6,2.9,3.5,6,4.7,6.7c0,0,0.1,0.1,0.1,0.1c1.8-0.5,2.6-1.1,2.6-1.1c-2.5-1.9-5.1-9.3-5.1-9.3c2.1-2.6,9.1-14.4,9.1-14.4   C46.8,15.4,28.8,5,28.8,5c-2.5,4.7-8.7,12.2-8.7,12.2C16.2,19.7,6,21.7,6,21.7c1.1,0.9,2.3,1.8,3.4,2.7c5-1.3,11.3-3.1,12.4-3.9   C23.3,19.3,28.1,12.5,29.8,10z"></path><path d="M55,22.5C55,22.5,55,22.6,55,22.5L37.8,42.1c1.7,0.7,3.3,1.4,4.8,1.9c0-0.1,0.1-0.3,0.2-0.4l17-19.3   C58.4,23.8,56.8,23.2,55,22.5z"></path><path d="M86,41.2l-3.1-4.1c-1.8-0.5-3.4-1-4.9-1.6l5.2,7.3C84.2,42.3,85.1,41.8,86,41.2z"></path><path d="M73.4,32.7c-1,0.6-2,1.1-3,1.5l7.8,10.5c1.3-0.3,2.4-0.7,3.6-1.2l-6.9-9.7l0.1,0C74.3,33.4,73.8,33.1,73.4,32.7z"></path><path d="M76.3,45.1L68.8,35c-1,0.5-2,0.9-2.9,1.2l6.4,9.3l-0.1,0.1C73.6,45.6,75,45.4,76.3,45.1z"></path><path d="M66.5,26.4c-2,3.2-4.5,7.3-6,9.4c0.1,0.2,0.1,0.3,0.2,0.5c1.3-0.4,6.1-2,11.3-4.8C69.7,29.6,67.5,27.5,66.5,26.4z"></path><path d="M61.3,37.9c1,2.4,2.4,4.9,3.4,5.6c0.4,0.3,0.7,0.8,0.7,1.3c0,0.1,0,0.2,0,0.3c1.7,0.3,3.4,0.5,5,0.5l-6-8.8   C62.9,37.4,61.9,37.7,61.3,37.9z"></path><path d="M91.9,34.1c-4.6,0-11.2-2.3-11.2-2.3c-2.8-1.1-9.1-6.9-11.7-9.5c-0.3,0.5-0.9,1.4-1.6,2.6c1.3,1.3,7,7.2,10.4,8.7   c3.8,1.6,9.2,3.3,14.2,2.6c1.3-1.4,2-2.4,2-2.4C93.4,34,92.7,34.1,91.9,34.1z"></path><path d="M85.4,37.7l2,2.6c1.1-0.8,2-1.5,2.8-2.3c-0.1,0-0.3,0-0.4,0C88.3,38.1,86.8,37.9,85.4,37.7z"></path><path d="M17.4,72c0-0.1,0.1-0.2,0.2-0.2l6.3-5.6l-12.5-6.8v10.4l5.5,3.4L17.4,72z"></path><polygon points="41.1,75.2 26.1,67.3 26.1,69.3 39.8,76.5  "></polygon><polygon points="23.9,71.4 23.9,72.8 36.3,79.9 37.4,78.9 38.6,77.8 25.2,70.7  "></polygon><path d="M22.5,73.9L21,74.7v1.4l12.6,7.2c0.8-1.1,1.4-1.9,1.5-2.1L22.5,73.9C22.6,74,22.6,73.9,22.5,73.9z"></path><path d="M37,81.6L37,81.6l-0.6,0.6c-0.3,0.4-3.1,4.1-5.1,8.1v2.8l3.4-2.4l6.8-5.1v-8.4l-3.7,3.6L37,81.6z"></path><path d="M29.7,91.6L29.7,91.6C29.7,91.6,29.7,91.6,29.7,91.6L29.7,91.6z"></path><path d="M20.1,77.5l-1.3,0.6v1.4l12.6,7.2c0.4-0.7,0.9-1.4,1.3-2.1L20.1,77.5z"></path><path d="M17.1,77.6c0-0.3,0.2-0.6,0.5-0.8l1.8-0.9v-1.8c0-0.3,0.2-0.6,0.5-0.8l2.2-1.1c0.1,0,0.1,0,0.2-0.1v-1.4   c0-0.3,0.2-0.6,0.5-0.8l1.8-0.8v-1.4l-5.6,5L15,80.3c0.1,0,0.1-0.1,0.2-0.1l1.9-0.9V77.6z"></path><path d="M16.4,81.5v1.4l13,7.5c0.1,0.1,0.2,0.1,0.3,0.2v-0.5c0-0.1,0-0.2,0.1-0.4c0.2-0.5,0.5-1,0.8-1.5l-12.8-7.4L16.4,81.5z"></path><path d="M83,60.7v1.1c0,0.3-0.1,0.5-0.4,0.7L61,77.2c0,0,0,0,0,0c0,0,0,0,0,0c0,0-0.1,0-0.1,0.1c0,0,0,0-0.1,0c-0.1,0-0.2,0-0.2,0   c-0.1,0-0.1,0-0.2,0c0,0,0,0,0,0c0,0-0.1,0-0.1,0L17.5,56c-0.3-0.1-0.5-0.4-0.5-0.7v-0.3l-5.4,2.7l14,7.6c0.1,0,0.1,0.1,0.2,0.1   l17.1,9c0,0,0,0,0,0c0,0,0,0,0,0l17.6,9.3l28.9-20.7L83,60.7z"></path><path d="M81.3,47.3c-6.6,3.9-17.6,9.6-20,10.8v16.8l20-13.5V47.3z M63.8,63.4v-3.7l2.5-1.5l0.1,3.5L63.8,63.4z M67.6,61v-3.5   l2.5-1.5l0.1,3.3L67.6,61z M73.3,57.9v-3.7l2.5-1.5l0.1,3.5L73.3,57.9z M77.1,55.5v-3.5l2.5-1.5l0.1,3.3L77.1,55.5z"></path><path d="M59.7,58.1c-4.3-1.5-8.3-3-12.1-4.6v15.6l12.1,6.1V58.1z M52.6,62.6l-2.9-1.4v-3.5l2.9,1.5V62.6z M57.4,64.8l-2.9-1.4v-3.5   l2.9,1.5V64.8z"></path><path d="M45.9,68.3V52.9c0,0,0,0,0,0c-0.9-0.4-1.8-0.8-2.7-1.1v15.2L45.9,68.3z"></path><path d="M41.6,66.1V51.3c0-0.1,0-0.2,0.1-0.4c-2.9-1.3-5.6-2.5-8.1-3.7v14.8l1.7,0.8v-8.5l4.4,1.9v8.8L41.6,66.1z"></path><path d="M31.9,61.3V46.5c-0.9-0.5-1.8-0.9-2.7-1.3v14.8L31.9,61.3z"></path><path d="M27.5,59.1V44.5c0-0.1,0-0.2,0-0.3c-3.7-1.9-6.7-3.6-8.8-4.8v15.2L27.5,59.1z M23.7,45.6l2.1,1.1v2.5l-2.1-1V45.6z    M20.2,44l2.1,1.1v2.5l-2.1-1V44z"></path><path d="M59.6,48c-1,0.2-2.3,0.3-3.7,0.3c-6.7,0-14.9-2.4-24.3-7.2c-5-2.5-10.7-6.1-17.1-10.8l1.4,5.6c2.3,1.5,19.2,11.9,43.8,20.4   L59.6,48z"></path><path d="M61.4,48.4v7.7c3.4-1.7,13.2-6.8,19.2-10.4c-2.9,1-6.1,1.6-9.8,1.6c-1.9,0-3.9-0.2-5.8-0.5L61.4,48.4   C61.4,48.4,61.4,48.4,61.4,48.4z"></path></g></svg></g><line x1="41" y1="1" x2="41" y2="28" stroke="#23c2be" stroke-linecap="round"></line><path fill="#23c2be" fill-rule="nonzero" d="M12.34 12.36L12.34 12.36Q12.96 12.36 13.32 12.79Q13.68 13.22 13.68 13.99L13.68 13.99Q13.68 14.18 13.66 14.39Q13.63 14.59 13.58 14.74L13.58 14.74Q13.08 14.62 12.48 14.59L12.48 14.59Q12.34 15.65 11.71 16.81Q11.09 17.98 10.20 19.00Q9.31 20.02 8.26 20.78Q7.20 21.55 6.17 21.82L6.17 21.82Q2.95 21.74 1.48 20.15Q0 18.55 0 15.17L0 15.17Q0 12.70 0.91 10.38Q1.82 8.06 3.34 6.26Q4.85 4.46 6.80 3.37Q8.76 2.28 10.87 2.28L10.87 2.28Q12.53 2.28 13.45 2.98Q14.38 3.67 14.38 4.94L14.38 4.94Q14.38 5.78 13.98 6.50Q13.58 7.22 12.67 8.06L12.67 8.06Q12.12 7.90 11.71 7.48Q11.30 7.06 11.21 6.50L11.21 6.50Q12.02 5.90 12.36 5.40Q12.70 4.90 12.70 4.20L12.70 4.20Q12.70 3.10 11.38 3.10L11.38 3.10Q10.30 3.10 9.06 3.90Q7.82 4.70 6.58 6.22L6.58 6.22Q4.80 8.35 3.98 10.62Q3.17 12.89 3.17 15.72L3.17 15.72Q3.17 16.78 3.38 17.64Q3.60 18.50 3.96 19.15Q4.32 19.80 4.81 20.18Q5.30 20.57 5.88 20.62L5.88 20.62Q6.65 20.45 7.42 19.84Q8.18 19.22 8.82 18.40Q9.46 17.57 9.90 16.62Q10.34 15.67 10.44 14.81L10.44 14.81Q9.77 14.95 9.16 15.08Q8.54 15.22 7.99 15.22L7.99 15.22Q7.27 15.22 6.73 14.86Q6.19 14.50 6 13.87L6 13.87Q6.43 13.63 7.26 13.37Q8.09 13.10 9.02 12.88Q9.96 12.65 10.86 12.50Q11.76 12.36 12.34 12.36ZM22.82 10.30L22.82 10.30Q23.06 10.30 23.39 10.38Q23.71 10.46 23.98 10.60Q24.24 10.73 24.42 10.87Q24.60 11.02 24.60 11.14L24.60 11.14Q24.12 12.14 23.71 13.16Q23.30 14.18 23.02 15.12Q22.73 16.06 22.57 16.87Q22.42 17.69 22.42 18.29L22.42 18.29Q22.42 18.96 22.56 19.40Q22.70 19.85 23.04 20.04L23.04 20.04Q22.75 20.23 22.30 20.35Q21.84 20.47 21.48 20.47L21.48 20.47Q20.18 20.47 20.18 18.70L20.18 18.70Q20.18 17.33 21.10 14.95L21.10 14.95Q20.62 16.06 19.99 17.03Q19.37 18 18.72 18.74Q18.07 19.49 17.41 19.96Q16.75 20.42 16.20 20.52L16.20 20.52Q15.31 20.47 14.76 19.67Q14.21 18.86 14.21 17.62L14.21 17.62Q14.21 16.27 14.78 14.78Q15.36 13.30 16.26 12.02Q17.16 10.75 18.22 9.90Q19.27 9.05 20.26 9L20.26 9Q20.50 9.07 20.80 9.29Q21.10 9.50 21.37 9.79Q21.65 10.08 21.84 10.38Q22.03 10.68 22.06 10.90L22.06 10.90Q21.10 11.04 20.08 11.83Q19.06 12.62 18.23 13.74Q17.40 14.86 16.87 16.13Q16.34 17.40 16.34 18.50L16.34 18.50Q16.34 18.96 16.68 19.08L16.68 19.08Q17.38 18.94 18.29 17.89Q19.20 16.85 20.50 14.66L20.50 14.66Q20.74 14.23 21.04 13.70Q21.34 13.18 21.65 12.60Q21.96 12.02 22.26 11.44Q22.56 10.85 22.82 10.30ZM25.87 17.74L25.87 17.74Q25.87 16.87 26.32 15.34Q26.76 13.80 27.48 11.98Q28.20 10.15 29.11 8.21Q30.02 6.26 30.95 4.58Q31.87 2.90 32.72 1.68Q33.58 0.46 34.18 0.02L34.18 0.02Q34.51 0.05 34.91 0.31Q35.30 0.58 35.64 0.95Q35.98 1.32 36.20 1.73Q36.43 2.14 36.43 2.47L36.43 2.47Q35.35 3.34 34.24 4.69Q33.12 6.05 32.11 7.67Q31.10 9.29 30.25 11.10Q29.40 12.91 28.82 14.66L28.82 14.66Q29.59 13.34 30.43 12.26Q31.27 11.18 32.11 10.42Q32.95 9.65 33.76 9.23Q34.56 8.81 35.28 8.78L35.28 8.78Q36.34 9.55 36.34 10.82L36.34 10.82Q36.34 11.59 36.02 12.37Q35.71 13.15 35.20 13.81Q34.68 14.47 34.02 14.94Q33.36 15.41 32.64 15.55L32.64 15.55Q32.88 16.39 33.25 17.26Q33.62 18.12 34.14 18.94Q34.66 19.75 35.32 20.45Q35.98 21.14 36.82 21.62L36.82 21.62Q36.70 21.86 36.46 22.10Q36.22 22.34 35.88 22.52Q35.54 22.70 35.15 22.81Q34.75 22.92 34.37 22.92L34.37 22.92Q33.72 22.92 33.16 22.27Q32.59 21.62 32.14 20.40L32.14 20.40Q31.78 19.42 31.44 18.05Q31.10 16.68 30.84 15.19L30.84 15.19Q31.18 14.98 31.68 14.56Q32.18 14.14 32.74 13.58L32.74 13.58Q34.85 11.54 34.85 10.06L34.85 10.06Q34.85 9.86 34.58 9.86L34.58 9.86Q34.10 9.89 33.46 10.32Q32.81 10.75 32.08 11.52Q31.34 12.29 30.59 13.32Q29.83 14.35 29.14 15.55L29.14 15.55Q28.85 16.03 28.61 16.66Q28.37 17.28 28.19 17.94Q28.01 18.60 27.91 19.25Q27.82 19.90 27.82 20.45L27.82 20.45Q27.82 20.78 27.89 21L27.89 21Q27.14 20.93 26.98 20.62L26.98 20.62Q26.78 20.33 26.65 20.15Q26.52 19.97 26.38 19.85L26.38 19.85Q26.16 19.68 26.02 19.13Q25.87 18.58 25.87 17.74ZM44.26 19.46L44.26 19.46Q43.80 19.08 43.64 18.50Q43.49 17.93 43.49 17.52L43.49 17.52Q43.49 17.02 43.61 16.66L43.61 16.66Q43.51 16.66 43.18 17.04Q42.84 17.42 42.44 17.95Q42.05 18.48 41.66 18.98Q41.28 19.49 41.09 19.73L41.09 19.73Q40.78 20.06 40.50 20.26Q40.22 20.45 40.06 20.47L40.06 20.47Q39.67 20.45 39.25 20.32Q38.83 20.18 38.46 19.94Q38.09 19.70 37.81 19.37Q37.54 19.03 37.44 18.60L37.44 18.60Q37.44 17.93 37.48 17.50Q37.51 17.06 37.63 16.56L37.63 16.56Q37.85 15.65 38.27 14.50Q38.69 13.34 39.24 12.23Q39.79 11.11 40.48 10.14Q41.16 9.17 41.93 8.62L41.93 8.62Q42.14 8.62 42.43 8.65Q42.72 8.69 43.02 8.78Q43.32 8.88 43.60 9.01Q43.87 9.14 44.06 9.36L44.06 9.36Q43.85 9.60 42.97 10.97Q42.10 12.34 41.02 14.90L41.02 14.90Q40.90 15.17 40.73 15.67Q40.56 16.18 40.39 16.73Q40.22 17.28 40.12 17.81Q40.01 18.34 40.01 18.65L40.01 18.65Q40.01 18.84 40.07 18.94Q40.13 19.03 40.18 19.08L40.18 19.08Q40.54 18.94 41.09 18.29Q41.64 17.64 42.62 16.30L42.62 16.30Q42.86 15.96 43.19 15.53Q43.51 15.10 43.85 14.60Q44.18 14.11 44.48 13.58Q44.78 13.06 44.98 12.53L44.98 12.53Q45.07 12.24 45.23 11.84Q45.38 11.45 45.61 11.02Q45.84 10.58 46.14 10.14Q46.44 9.70 46.85 9.31L46.85 9.31Q47.16 9.31 47.52 9.38Q47.88 9.46 48.20 9.56Q48.53 9.67 48.77 9.80Q49.01 9.94 49.13 10.08L49.13 10.08Q48.70 11.14 48.17 12.17Q47.64 13.20 47.18 14.20Q46.73 15.19 46.42 16.18Q46.10 17.16 46.10 18.10L46.10 18.10Q46.10 18.60 46.19 18.97Q46.27 19.34 46.37 19.60Q46.46 19.85 46.55 20.02Q46.63 20.18 46.63 20.30L46.63 20.30Q46.63 20.33 46.58 20.38L46.58 20.38Q46.56 20.40 46.54 20.40L46.54 20.40Q46.37 20.40 46.10 20.33Q45.84 20.26 45.52 20.12Q45.19 19.99 44.87 19.82Q44.54 19.66 44.26 19.46ZM51.70 20.16L51.70 20.16Q52.80 19.42 53.86 18.25Q54.91 17.09 55.78 15.73Q56.64 14.38 57.24 12.91Q57.84 11.45 58.06 10.10L58.06 10.10Q58.06 9.82 57.74 9.72L57.74 9.72Q57.41 9.72 56.82 10.31Q56.23 10.90 55.52 11.81Q54.82 12.72 54.08 13.85Q53.35 14.98 52.75 16.09Q52.15 17.21 51.73 18.18Q51.31 19.15 51.26 19.75L51.26 19.75Q51.02 19.75 50.86 19.27L50.86 19.27Q50.81 19.15 50.69 19.02Q50.57 18.89 50.30 18.70L50.30 18.70Q50.18 18.60 50.06 18.47Q49.94 18.34 49.90 18.24L49.90 18.24Q49.80 18.05 49.80 17.62L49.80 17.62Q49.80 16.20 50.16 14.42Q50.52 12.65 51.11 10.80Q51.70 8.95 52.49 7.16Q53.28 5.38 54.13 3.89Q54.98 2.40 55.85 1.37Q56.71 0.34 57.48 0L57.48 0Q57.72 0.07 58.06 0.24Q58.39 0.41 58.73 0.62Q59.06 0.84 59.36 1.06Q59.66 1.27 59.81 1.44L59.81 1.44Q57.17 3.58 55.24 6.92Q53.30 10.27 52.08 14.83L52.08 14.83Q52.75 13.58 53.59 12.42Q54.43 11.26 55.26 10.37Q56.09 9.48 56.84 8.95Q57.60 8.42 58.10 8.42L58.10 8.42Q58.49 8.52 58.85 8.76Q59.21 9 59.50 9.35Q59.78 9.70 59.98 10.09Q60.17 10.49 60.22 10.92L60.22 10.92Q60.19 11.93 59.87 13.07Q59.54 14.21 59.00 15.31Q58.46 16.42 57.78 17.42Q57.10 18.43 56.34 19.19Q55.58 19.94 54.83 20.40Q54.07 20.86 53.40 20.86L53.40 20.86Q53.11 20.86 52.81 20.80Q52.51 20.74 52.26 20.63Q52.01 20.52 51.85 20.40Q51.70 20.28 51.70 20.16ZM67.34 19.46L67.34 19.46Q66.89 19.08 66.73 18.50Q66.58 17.93 66.58 17.52L66.58 17.52Q66.58 17.02 66.70 16.66L66.70 16.66Q66.60 16.66 66.26 17.04Q65.93 17.42 65.53 17.95Q65.14 18.48 64.75 18.98Q64.37 19.49 64.18 19.73L64.18 19.73Q63.86 20.06 63.59 20.26Q63.31 20.45 63.14 20.47L63.14 20.47Q62.76 20.45 62.34 20.32Q61.92 20.18 61.55 19.94Q61.18 19.70 60.90 19.37Q60.62 19.03 60.53 18.60L60.53 18.60Q60.53 17.93 60.56 17.50Q60.60 17.06 60.72 16.56L60.72 16.56Q60.94 15.65 61.36 14.50Q61.78 13.34 62.33 12.23Q62.88 11.11 63.56 10.14Q64.25 9.17 65.02 8.62L65.02 8.62Q65.23 8.62 65.52 8.65Q65.81 8.69 66.11 8.78Q66.41 8.88 66.68 9.01Q66.96 9.14 67.15 9.36L67.15 9.36Q66.94 9.60 66.06 10.97Q65.18 12.34 64.10 14.90L64.10 14.90Q63.98 15.17 63.82 15.67Q63.65 16.18 63.48 16.73Q63.31 17.28 63.20 17.81Q63.10 18.34 63.10 18.65L63.10 18.65Q63.10 18.84 63.16 18.94Q63.22 19.03 63.26 19.08L63.26 19.08Q63.62 18.94 64.18 18.29Q64.73 17.64 65.71 16.30L65.71 16.30Q65.95 15.96 66.28 15.53Q66.60 15.10 66.94 14.60Q67.27 14.11 67.57 13.58Q67.87 13.06 68.06 12.53L68.06 12.53Q68.16 12.24 68.32 11.84Q68.47 11.45 68.70 11.02Q68.93 10.58 69.23 10.14Q69.53 9.70 69.94 9.31L69.94 9.31Q70.25 9.31 70.61 9.38Q70.97 9.46 71.29 9.56Q71.62 9.67 71.86 9.80Q72.10 9.94 72.22 10.08L72.22 10.08Q71.78 11.14 71.26 12.17Q70.73 13.20 70.27 14.20Q69.82 15.19 69.50 16.18Q69.19 17.16 69.19 18.10L69.19 18.10Q69.19 18.60 69.28 18.97Q69.36 19.34 69.46 19.60Q69.55 19.85 69.64 20.02Q69.72 20.18 69.72 20.30L69.72 20.30Q69.72 20.33 69.67 20.38L69.67 20.38Q69.65 20.40 69.62 20.40L69.62 20.40Q69.46 20.40 69.19 20.33Q68.93 20.26 68.60 20.12Q68.28 19.99 67.96 19.82Q67.63 19.66 67.34 19.46ZM72.70 15.77L72.70 15.77Q72.70 14.40 73.26 13.12Q73.82 11.83 74.75 10.84Q75.67 9.84 76.86 9.23Q78.05 8.62 79.32 8.62L79.32 8.62Q80.57 8.62 81.24 9.24Q81.91 9.86 81.91 11.02L81.91 11.02Q81.91 11.57 81.76 12.08Q81.60 12.60 81.35 13.01Q81.10 13.42 80.76 13.67Q80.42 13.92 80.09 13.92L80.09 13.92Q79.80 13.92 79.50 13.74Q79.20 13.56 79.01 13.27L79.01 13.27Q80.62 11.81 80.62 10.61L80.62 10.61Q80.62 9.91 80.06 9.91L80.06 9.91Q79.58 9.91 78.86 10.37Q78.14 10.82 77.47 11.57L77.47 11.57Q76.44 12.72 75.90 14.12Q75.36 15.53 75.36 17.06L75.36 17.06Q75.36 19.01 76.22 19.39L76.22 19.39Q76.58 19.34 77.06 19.18Q77.54 19.01 78.10 18.73Q78.65 18.46 79.24 18.10Q79.82 17.74 80.38 17.33L80.38 17.33Q80.47 17.40 80.54 17.54Q80.62 17.69 80.62 17.81L80.62 17.81Q80.21 18.31 79.68 18.79Q79.15 19.27 78.58 19.67Q78.00 20.06 77.46 20.34Q76.92 20.62 76.51 20.69L76.51 20.69Q75.72 20.62 75.02 20.20Q74.33 19.78 73.81 19.10Q73.30 18.43 73.00 17.57Q72.70 16.70 72.70 15.77ZM82.61 19.58L82.61 19.58Q82.61 18.74 82.78 17.60Q82.94 16.46 83.27 15.17Q83.59 13.87 84.04 12.46Q84.48 11.04 85.03 9.62L85.03 9.62Q85.51 8.35 86.15 7.06Q86.78 5.76 87.53 4.51Q88.27 3.26 89.08 2.14Q89.88 1.01 90.70 0.07L90.70 0.07Q91.08 0.07 91.52 0.17Q91.97 0.26 92.39 0.42Q92.81 0.58 93.16 0.79Q93.50 1.01 93.72 1.22L93.72 1.22Q91.92 3.07 90.48 4.96Q89.04 6.84 88.20 8.50L88.20 8.50Q87.74 9.41 87.37 10.20Q87.00 10.99 86.69 11.77Q86.38 12.55 86.12 13.33Q85.87 14.11 85.66 14.98L85.66 14.98Q90.26 9.10 92.50 9.10L92.50 9.10Q93.12 9.10 93.84 9.50Q94.56 9.91 95.11 10.61L95.11 10.61Q94.37 11.42 93.58 12.58Q92.78 13.73 92.12 14.89Q91.46 16.06 91.04 17.05Q90.62 18.05 90.62 18.53L90.62 18.53Q90.62 18.77 90.70 18.85Q90.77 18.94 91.01 18.94L91.01 18.94Q91.37 18.94 91.58 18.84Q91.80 18.74 91.85 18.74L91.85 18.74Q91.97 18.94 91.99 19.01Q92.02 19.08 92.02 19.13L92.02 19.13Q92.02 19.22 91.73 19.40Q91.44 19.58 91.04 19.76Q90.65 19.94 90.26 20.09Q89.88 20.23 89.69 20.23L89.69 20.23Q89.45 20.23 89.21 20.10Q88.97 19.97 88.79 19.75Q88.61 19.54 88.50 19.27Q88.39 19.01 88.39 18.72L88.39 18.72Q88.39 18.36 88.60 17.65Q88.80 16.94 89.16 16.00Q89.52 15.05 90.02 13.92Q90.53 12.79 91.10 11.62L91.10 11.62Q91.10 11.52 91.01 11.52L91.01 11.52Q90.94 11.52 90.64 11.71Q90.34 11.90 90.07 12.10L90.07 12.10Q89.21 12.74 88.33 13.69Q87.46 14.64 86.63 15.77Q85.80 16.90 85.07 18.16Q84.34 19.42 83.81 20.69L83.81 20.69Q83.74 20.86 83.59 21Q83.45 21.14 83.35 21.14L83.35 21.14Q83.28 21.14 83.15 20.98Q83.02 20.81 82.91 20.56Q82.80 20.30 82.70 20.04Q82.61 19.78 82.61 19.58ZM95.06 18.38L95.06 18.38Q95.06 18.17 95.10 17.84Q95.14 17.52 95.23 16.98Q95.33 16.44 95.48 15.67Q95.64 14.90 95.88 13.82L95.88 13.82Q95.93 13.58 96.10 13.06Q96.26 12.53 96.54 11.94Q96.82 11.35 97.21 10.80Q97.61 10.25 98.16 9.98L98.16 9.98Q98.57 10.08 99.24 10.48Q99.91 10.87 100.39 11.57L100.39 11.57Q99.84 12.19 99.47 12.82Q99.10 13.44 98.80 14.11Q98.50 14.78 98.24 15.50Q97.99 16.22 97.68 17.02L97.68 17.02Q97.42 17.69 97.20 18.40Q96.98 19.10 96.96 19.63L96.96 19.63Q96.96 20.06 96.95 20.24Q96.94 20.42 96.82 20.42L96.82 20.42Q96.72 20.42 96.43 20.30Q96.14 20.18 95.84 19.93Q95.54 19.68 95.30 19.30Q95.06 18.91 95.06 18.38ZM99.65 7.97L99.65 7.97Q99.65 7.82 99.72 7.54L99.72 7.54Q99.60 7.42 99.52 7.18Q99.43 6.94 99.43 6.74L99.43 6.74Q99.43 6.53 99.49 6.16Q99.55 5.78 99.65 5.35Q99.74 4.92 99.89 4.45Q100.03 3.98 100.18 3.60L100.18 3.60Q100.46 3.60 100.88 3.76Q101.30 3.91 101.74 4.16Q102.17 4.42 102.53 4.72Q102.89 5.02 103.08 5.28L103.08 5.28Q102.82 5.54 102.38 6.01Q101.95 6.48 101.54 7.00Q101.14 7.51 100.80 7.97Q100.46 8.42 100.37 8.62L100.37 8.62Q100.08 8.57 99.86 8.36Q99.65 8.16 99.65 7.97ZM107.59 21.82L107.59 21.82Q106.44 21.48 106.00 21.14Q105.55 20.81 105.55 20.30L105.55 20.30Q105.55 19.92 105.77 19.22Q105.98 18.53 106.40 17.58Q106.82 16.63 107.41 15.48Q108 14.33 108.74 13.01L108.74 13.01Q108.12 12.98 107.63 12.97Q107.14 12.96 106.82 12.96L106.82 12.96Q106.97 12.60 107.64 12.34Q108.31 12.07 109.42 11.88L109.42 11.88Q110.35 10.32 111.42 8.90Q112.49 7.49 113.57 6.30Q114.65 5.11 115.73 4.21Q116.81 3.31 117.79 2.78L117.79 2.78Q117.82 2.62 117.83 2.50Q117.84 2.38 117.84 2.33L117.84 2.33Q118.18 2.33 118.74 2.50Q119.30 2.66 119.84 2.90Q120.38 3.14 120.80 3.40Q121.22 3.65 121.27 3.82L121.27 3.82Q120.48 5.21 119.71 7.98Q118.94 10.75 118.44 14.62L118.44 14.62Q118.32 15.58 118.24 16.80Q118.15 18.02 118.15 19.54L118.15 19.54Q118.15 20.06 118.15 20.62Q118.15 21.17 118.20 21.77L118.20 21.77Q118.15 21.79 118.10 21.79Q118.06 21.79 117.91 21.79L117.91 21.79Q117.58 21.79 117.13 21.68Q116.69 21.58 116.27 21.42Q115.85 21.26 115.55 21.07Q115.25 20.88 115.18 20.74L115.18 20.74Q115.15 20.42 115.15 20.12Q115.15 19.82 115.15 19.49L115.15 19.49Q115.15 18 115.26 16.46Q115.37 14.93 115.63 13.30L115.63 13.30Q115.30 13.27 114.74 13.24Q114.19 13.20 113.51 13.18Q112.82 13.15 112.04 13.12Q111.26 13.08 110.52 13.06L110.52 13.06Q109.94 14.14 109.44 15.20Q108.94 16.27 108.58 17.35L108.58 17.35Q108.17 18.50 107.92 19.66Q107.66 20.81 107.59 21.82ZM116.86 7.39L116.86 7.39Q116.95 7.06 117.08 6.47Q117.22 5.88 117.34 5.23L117.34 5.23Q116.74 5.45 116.00 6.02Q115.27 6.60 114.49 7.45Q113.71 8.30 112.91 9.37Q112.10 10.44 111.36 11.64L111.36 11.64Q113.38 11.47 115.94 11.42L115.94 11.42Q116.14 10.42 116.36 9.42Q116.59 8.42 116.86 7.39ZM123.60 10.80L122.23 10.80Q122.11 10.66 122.02 10.19Q121.92 9.72 121.92 9.38L121.92 9.38Q122.54 9.43 123.12 9.47Q123.70 9.50 124.18 9.53L124.18 9.53Q124.54 8.81 124.96 8.10Q125.38 7.39 125.77 6.80Q126.17 6.22 126.52 5.81Q126.86 5.40 127.06 5.28L127.06 5.28Q127.30 5.28 127.67 5.36Q128.04 5.45 128.42 5.58Q128.81 5.71 129.12 5.86Q129.43 6 129.55 6.14L129.55 6.14Q128.83 7.06 128.32 7.84Q127.80 8.62 127.20 9.62L127.20 9.62Q127.68 9.62 128.17 9.60Q128.66 9.58 129.17 9.53L129.17 9.53Q129.29 9.65 129.36 9.83Q129.43 10.01 129.43 10.20L129.43 10.20Q128.26 10.63 126.58 10.68L126.58 10.68Q125.98 11.83 125.51 12.97Q125.04 14.11 124.72 15.17Q124.39 16.22 124.21 17.16Q124.03 18.10 124.03 18.84L124.03 18.84Q124.03 19.90 124.82 20.02L124.82 20.02Q125.54 19.92 126.19 19.66Q126.84 19.39 127.34 18.98L127.34 18.98Q127.49 19.20 127.51 19.34L127.51 19.34Q127.37 19.56 127.02 19.85Q126.67 20.14 126.26 20.41Q125.86 20.69 125.47 20.88Q125.09 21.07 124.90 21.10L124.90 21.10Q124.30 21.07 123.70 20.83Q123.10 20.59 122.60 20.23Q122.11 19.87 121.80 19.43Q121.49 18.98 121.49 18.55L121.49 18.55Q121.49 17.98 121.64 17.10Q121.80 16.22 122.09 15.19Q122.38 14.16 122.76 13.03Q123.14 11.90 123.60 10.80L123.60 10.80ZM137.86 10.06L137.86 10.06Q137.76 11.54 137.33 12.61Q136.90 13.68 136.09 14.48Q135.29 15.29 134.14 15.94Q132.98 16.58 131.45 17.18L131.45 17.18Q131.45 17.33 131.44 17.48Q131.42 17.64 131.42 17.81L131.42 17.81Q131.42 18.12 131.47 18.46Q131.52 18.79 131.64 19.08Q131.76 19.37 131.98 19.55Q132.19 19.73 132.53 19.73L132.53 19.73Q133.18 19.73 133.80 19.44Q134.42 19.15 134.99 18.73Q135.55 18.31 136.04 17.82Q136.54 17.33 136.92 16.92L136.92 16.92Q137.16 17.14 137.33 17.33L137.33 17.33Q136.25 18.77 134.96 19.72Q133.68 20.66 132.53 20.93L132.53 20.93Q130.87 20.74 129.95 19.72Q129.02 18.70 129.02 17.26L129.02 17.26Q129.02 16.27 129.30 15.25Q129.58 14.23 130.07 13.28Q130.56 12.34 131.22 11.50Q131.88 10.66 132.64 10.03Q133.39 9.41 134.20 9.05Q135 8.69 135.79 8.69L135.79 8.69Q136.90 8.83 137.86 10.06ZM136.20 10.85L136.20 10.85Q135.55 10.94 134.86 11.38Q134.16 11.81 133.55 12.53Q132.94 13.25 132.43 14.21Q131.93 15.17 131.64 16.27L131.64 16.27Q133.56 15.31 134.83 13.91Q136.10 12.50 136.20 10.85ZM138.94 18.46L138.94 18.46Q138.94 17.40 139.44 15.49Q139.94 13.58 140.86 11.04L140.86 11.04Q142.34 6.98 143.65 4.28Q144.96 1.58 146.21 0.07L146.21 0.07Q146.50 0.12 146.92 0.31Q147.34 0.50 147.74 0.73Q148.15 0.96 148.48 1.20Q148.80 1.44 148.90 1.58L148.90 1.58Q147.02 3.79 145.61 6.34Q144.19 8.88 143.02 12.17L143.02 12.17Q142.01 15 141.48 17.27Q140.95 19.54 140.95 21.05L140.95 21.05Q140.95 21.46 140.95 21.55Q140.95 21.65 140.98 21.74L140.98 21.74Q140.64 21.70 140.40 21.58Q140.16 21.46 140.09 21.29L140.09 21.29Q140.04 21.17 139.82 20.94Q139.61 20.71 139.44 20.59L139.44 20.59Q139.22 20.45 139.08 19.84Q138.94 19.22 138.94 18.46ZM144.65 18.38L144.65 18.38Q144.65 18.17 144.68 17.84Q144.72 17.52 144.82 16.98Q144.91 16.44 145.07 15.67Q145.22 14.90 145.46 13.82L145.46 13.82Q145.51 13.58 145.68 13.06Q145.85 12.53 146.12 11.94Q146.40 11.35 146.80 10.80Q147.19 10.25 147.74 9.98L147.74 9.98Q148.15 10.08 148.82 10.48Q149.50 10.87 149.98 11.57L149.98 11.57Q149.42 12.19 149.05 12.82Q148.68 13.44 148.38 14.11Q148.08 14.78 147.83 15.50Q147.58 16.22 147.26 17.02L147.26 17.02Q147 17.69 146.78 18.40Q146.57 19.10 146.54 19.63L146.54 19.63Q146.54 20.06 146.53 20.24Q146.52 20.42 146.40 20.42L146.40 20.42Q146.30 20.42 146.02 20.30Q145.73 20.18 145.43 19.93Q145.13 19.68 144.89 19.30Q144.65 18.91 144.65 18.38ZM149.23 7.97L149.23 7.97Q149.23 7.82 149.30 7.54L149.30 7.54Q149.18 7.42 149.10 7.18Q149.02 6.94 149.02 6.74L149.02 6.74Q149.02 6.53 149.08 6.16Q149.14 5.78 149.23 5.35Q149.33 4.92 149.47 4.45Q149.62 3.98 149.76 3.60L149.76 3.60Q150.05 3.60 150.47 3.76Q150.89 3.91 151.32 4.16Q151.75 4.42 152.11 4.72Q152.47 5.02 152.66 5.28L152.66 5.28Q152.40 5.54 151.97 6.01Q151.54 6.48 151.13 7.00Q150.72 7.51 150.38 7.97Q150.05 8.42 149.95 8.62L149.95 8.62Q149.66 8.57 149.45 8.36Q149.23 8.16 149.23 7.97ZM158.88 10.06L158.88 10.06Q158.78 11.54 158.35 12.61Q157.92 13.68 157.12 14.48Q156.31 15.29 155.16 15.94Q154.01 16.58 152.47 17.18L152.47 17.18Q152.47 17.33 152.46 17.48Q152.45 17.64 152.45 17.81L152.45 17.81Q152.45 18.12 152.50 18.46Q152.54 18.79 152.66 19.08Q152.78 19.37 153.00 19.55Q153.22 19.73 153.55 19.73L153.55 19.73Q154.20 19.73 154.82 19.44Q155.45 19.15 156.01 18.73Q156.58 18.31 157.07 17.82Q157.56 17.33 157.94 16.92L157.94 16.92Q158.18 17.14 158.35 17.33L158.35 17.33Q157.27 18.77 155.99 19.72Q154.70 20.66 153.55 20.93L153.55 20.93Q151.90 20.74 150.97 19.72Q150.05 18.70 150.05 17.26L150.05 17.26Q150.05 16.27 150.32 15.25Q150.60 14.23 151.09 13.28Q151.58 12.34 152.24 11.50Q152.90 10.66 153.66 10.03Q154.42 9.41 155.22 9.05Q156.02 8.69 156.82 8.69L156.82 8.69Q157.92 8.83 158.88 10.06ZM157.22 10.85L157.22 10.85Q156.58 10.94 155.88 11.38Q155.18 11.81 154.57 12.53Q153.96 13.25 153.46 14.21Q152.95 15.17 152.66 16.27L152.66 16.27Q154.58 15.31 155.86 13.91Q157.13 12.50 157.22 10.85ZM159.41 19.51L159.41 19.51Q159.53 18.82 159.83 17.68Q160.13 16.54 160.54 15.25Q160.94 13.97 161.40 12.67Q161.86 11.38 162.29 10.34L162.29 10.34Q162.60 9.60 162.84 9.18Q163.08 8.76 163.37 8.47L163.37 8.47Q163.70 8.52 164.06 8.64Q164.42 8.76 164.76 8.93Q165.10 9.10 165.36 9.28Q165.62 9.46 165.77 9.62L165.77 9.62Q165.12 10.39 164.63 11.38Q164.14 12.36 163.63 13.90L163.63 13.90Q164.93 12.74 165.92 11.69Q166.92 10.63 167.78 9.34L167.78 9.34Q167.93 9.22 168.29 9.22L168.29 9.22Q168.62 9.22 168.94 9.32Q169.25 9.43 169.37 9.62L169.37 9.62Q168.94 10.78 168.94 11.90L168.94 11.90Q168.94 12.96 169.25 13.49L169.25 13.49Q169.22 13.63 168.92 14.04Q168.62 14.45 168.26 14.81L168.26 14.81Q167.62 14.47 167.11 13.88Q166.61 13.30 166.37 12.60L166.37 12.60Q165.24 13.39 164.45 14.15Q163.66 14.90 163.09 15.83Q162.53 16.75 162.13 17.95Q161.74 19.15 161.38 20.81L161.38 20.81Q161.16 20.78 160.86 20.65Q160.56 20.52 160.26 20.33Q159.96 20.14 159.72 19.92Q159.48 19.70 159.41 19.51Z" transform="translate(51, 3.04)"></path></svg>